HIERARCHY
ROOT hip
{
  OFFSET 0.0 0.0 0.0
  CHANNELS 6 Xposition Yposition Zposition Zrotation Yrotation Xrotation
  JOINT torso
  {
    OFFSET 0.0 0.0 0.0
    CHANNELS 3 Zrotation Xrotation Yrotation
    JOINT neck
    {
      OFFSET -8.059630999999968 325.56260699999996 64.6221310000002
      CHANNELS 3 Zrotation Xrotation Yrotation
      JOINT head
      {
        OFFSET 34.685424000000125 375.1179809999999 232.79357900000002
        CHANNELS 3 Zrotation Xrotation Yrotation
        End Site
        {
          OFFSET 0.0 0.0 0.0
        }
      }
    }
    JOINT left_collar
    {
      OFFSET -8.059630999999968 325.56260699999996 64.6221310000002
      CHANNELS 3 Zrotation Xrotation Yrotation
      JOINT left_upper_arm
      {
        OFFSET -124.124665 -15.370300999999927 25.582641999999964
        CHANNELS 3 Zrotation Xrotation Yrotation
        JOINT left_forearm
        {
          OFFSET -268.19913399999996 105.06054699999993 114.74548300000004
          CHANNELS 3 Zrotation Xrotation Yrotation
          JOINT left_hand
          {
            OFFSET -235.82003099999991 -10.198180999999977 -38.67455999999993
            CHANNELS 3 Zrotation Xrotation Yrotation
            End Site
            {
              OFFSET 0.0 0.0 0.0
            }
          }
        }
      }
    }
    JOINT right_collar
    {
      OFFSET -8.059630999999968 325.56260699999996 64.6221310000002
      CHANNELS 3 Zrotation Xrotation Yrotation
      JOINT right_upper_arm
      {
        OFFSET 162.73931899999997 -2.8598030000000563 26.244994999999903
        CHANNELS 3 Zrotation Xrotation Yrotation
        JOINT right_forearm
        {
          OFFSET 284.6506340000001 103.07031299999994 145.84521499999994
          CHANNELS 3 Zrotation Xrotation Yrotation
          JOINT right_hand
          {
            OFFSET 226.332337 -12.198241999999937 -49.27258299999994
            CHANNELS 3 Zrotation Xrotation Yrotation
            End Site
            {
              OFFSET 0.0 0.0 0.0
            }
          }
        }
      }
    }
  }
}
MOTION
Frames: 17
Frame Time: 0.01
400.16595733383485 220.07546186148105 736.7203275358229 0.3900498543576532 2.708768054140532 -3.372884155549305 0.6225897323866102 -2.2690267797384522 -0.19136371512615508 1.0791133423221904 -1.5109971940995894 -0.5393243270999135 0.0 0.0 0.0 -0.2413227710796601 0.06655311884665892 -0.9545502098764875 -0.5865751517175932 3.5736239258590934 9.932275403056227 0.86984450174695 -0.19875892935162795 1.0961173288003272 0.0 0.0 0.0 -0.12815512064772758 0.08675407094132716 3.511550907204108 3.38814913301729 1.3113870529829352 -7.851425835002973 -0.9121268293107608 -0.4272695885874205 -3.645251037223077 0.0 0.0 0.0
400.11442724707865 220.03502136814382 736.6860975456405 0.39357573511826127 2.7007618695035034 -3.3855017840203834 0.623015676342874 -2.265669633968271 -0.19135645702104395 1.0820485765180068 -1.514306995293736 -0.5408847909500016 0.0 0.0 0.0 -0.23924780783875926 0.06557194783037243 -0.9428585798233976 -0.5960147972490271 3.5667076154384008 9.921762640951185 0.8736905831341438 -0.19932467903922538 1.094100151954671 0.0 0.0 0.0 -0.12685193644926437 0.0866567417037902 3.5196958075791485 3.402447718924363 1.300825332380407 -7.839744992896795 -0.9448092231482168 -0.4359431685657462 -3.652353573356491 0.0 0.0 0.0
400.06944767356674 219.9957089402332 736.6507831832733 0.39718052993942365 2.693106776938979 -3.400242473818805 0.6234930375419052 -2.262317080331703 -0.19136049210012676 1.0846977193978253 -1.5181019436515972 -0.5422244509395115 0.0 0.0 0.0 -0.23710477231141375 0.06449297185235962 -0.9302491132722839 -0.6069217533942141 3.559351951485577 9.911328040244426 0.8798746022374443 -0.20045637995002588 1.095189692673554 0.0 0.0 0.0 -0.12539379216433255 0.0865446434883404 3.528651918296268 3.4174765799726483 1.289002076406319 -7.825574822847612 -0.98028450559788 -0.44542817750443936 -3.661081149455272 0.0 0.0 0.0
400.0307470567041 219.95680556662728 736.6130865060848 0.4009282084114952 2.6857392089604013 -3.417118192223006 0.6240104912235942 -2.2589733170652058 -0.1913734787009734 1.0871467611447154 -1.5226269538863466 -0.5433764415592416 0.0 0.0 0.0 -0.23485715000178134 0.06333947337088998 -0.9168488950658934 -0.6190262161224057 3.55206462054641 9.90210346159847 0.8867523024395385 -0.20177080469257483 1.0974842199153885 0.0 0.0 0.0 -0.1238273500096839 0.08642233352529853 3.5381869907359302 3.4324148215252293 1.276367131097205 -7.809176287197877 -1.0169157471891719 -0.4552453617402585 -3.6703529227890797 0.0 0.0 0.0
399.99769384050074 219.91745689376748 736.5715953292517 0.4048856512655169 2.6785677257353737 -3.436059533962764 0.6245584713357872 -2.2556384361236406 -0.19139333660956295 1.0894971908938893 -1.5281284228179486 -0.5443835217895163 0.0 0.0 0.0 -0.23246682230563098 0.06213914880192632 -0.9028184604540657 -0.6319512532359189 3.5454377564290613 9.895353378197216 0.8923602651184245 -0.20280949470588022 1.0987078677757167 0.0 0.0 0.0 -0.12221109298432412 0.08629594470860608 3.548029957111227 3.4462997136419253 1.26349240071932 -7.790968868674511 -1.0527384144501908 -0.46481831728199746 -3.6788925943732904 0.0 0.0 0.0
399.96927115062624 219.87668076257086 736.5248151004871 0.4091210441910278 2.6714722463739897 -3.456903908716748 0.6251299372925865 -2.2523087368279753 -0.19141842273345563 1.0918644623974845 -1.534845670402205 -0.5452978469765353 0.0 0.0 0.0 -0.22989544545018634 0.06092396330950135 -0.8883530218120611 -0.6452074007712276 3.540143368209217 9.892457567101793 0.8944284683849831 -0.20304139270023866 1.0962200422450614 0.0 0.0 0.0 -0.12061578676590747 0.08617332238546443 3.5578728286264836 3.4580335858447553 1.2510749875256864 -7.771545262031094 -1.08546965533752 -0.4734757788055897 -3.6852347306162043 0.0 0.0 0.0
399.94405981955515 219.83337538047255 736.4712037680583 0.4137025856620034 2.66430345192007 -3.4793854124034596 0.6257209166128884 -2.2489771236081872 -0.19144766043764896 1.094376150190158 -1.543002356526026 -0.546180551565559 0.0 0.0 0.0 -0.22710585924170087 0.05972993249164285 -0.8736831238235234 -0.6581899721440067 3.536926330462396 9.894890172690355 0.890401344341607 -0.20186839588813962 1.0870319009182348 0.0 0.0 0.0 -0.11912466634055895 0.08606411680645934 3.5673732012700823 3.466394551956755 1.2399372932119948 -7.751682772220065 -1.112527281771384 -0.4804571932630298 -3.6877341634787233 0.0 0.0 0.0
399.9202313043478 219.7863277887084 736.4092087050775 0.4186976026451873 2.6568823843269422 -3.5031269770528612 0.6263307908751042 -2.245633587798562 -0.19148061551787715 1.0971698047930296 -1.5527981672117341 -0.5471011228272568 0.0 0.0 0.0 -0.22406348580007454 0.05859682068711641 -0.859074568177855 -0.6701793958885999 3.5365948608907116 9.904195481399642 0.8774675308826206 -0.19863434683845085 1.0678297986697682 0.0 0.0 0.0 -0.11783330359638566 0.0859798215383919 3.576157420405401 3.47005103088111 1.2310236881408534 -7.732350748440999 -1.13105906389376 -0.4849220032859123 -3.684578095894088 0.0 0.0 0.0
399.89555196602043 219.73422239192024 736.337304675641 0.42417214199932546 2.6490002987172407 -3.527635383300618 0.6269623135178551 -2.2422657889853403 -0.1915175168325645 1.1003905156201494 -1.5644010439499374 -0.548136546900456 0.0 0.0 0.0 -0.22073767908676611 0.05756774272916645 -0.8448274282579427 -0.68034481525002 3.540008490760264 9.921960877159078 0.8525982359097207 -0.1926379057337528 1.0350054161581526 0.0 0.0 0.0 -0.11684912690411062 0.08593375122416101 3.5838244768639935 3.467579909012514 1.2253934161514226 -7.714713468675402 -1.137982678952831 -0.4859629823880719 -3.6738004460928937 0.0 0.0 0.0
399.8674000338661 219.6756494361528 736.2540317738194 0.4301910748677657 2.640418846898763 -3.552299687026109 0.627621368806408 -2.238859754624007 -0.19155922422496338 1.1041881894146541 -1.577940198188454 -0.5493702100644937 0.0 0.0 0.0 -0.2171029830905512 0.05668865459235526 -0.8312739607012837 -0.687751088394371 3.548063629834578 9.949787577257126 0.8125938082565941 -0.18314961519087367 0.9846921221231975 0.0 0.0 0.0 -0.11629057787326598 0.08594095519261336 3.5899507271160047 3.4574880620086885 1.224209492654246 -7.700128003048244 -1.1300363263518518 -0.48262383808156384 -3.6532979091067768 0.0 0.0 0.0
399.83279636595745 219.60911344750366 736.1580322439104 0.4368187170554107 2.630870678402397 -3.5763935520246877 0.6283165021214093 -2.2354007085947267 -0.19160715065044048 1.1087145509127592 -1.593500113114748 -0.5508905403311901 0.0 0.0 0.0 -0.21314025367384756 0.05600771842677915 -0.8187752197278195 -0.6913692213540663 3.561676936492768 9.989259868306409 0.7541377576333491 -0.16943327731968646 0.9128069886895569 0.0 0.0 0.0 -0.11628590037173513 0.08601806585704834 3.5940955448591563 3.438236819524638 1.2287234750338958 -7.690136725133872 -1.1038396399922825 -0.4739211319369312 -3.6208472100004188 0.0 0.0 0.0
399.78844983820693 219.53304177072567 736.0480851102842 0.4441199324426918 2.6200605468933476 -3.599081890569983 0.6290582716124101 -2.231874027502123 -0.19166314938626902 1.1141198716231355 -1.6111156902675725 -0.552789377357043 0.0 0.0 0.0 -0.20883759819352454 0.055574528900609876 -0.8077161944288979 -0.6900901485017462 3.581766819355622 10.041913658668259 0.673857109389377 -0.15077151927015445 0.8150978013080412 0.0 0.0 0.0 -0.11697156329621755 0.08618308271817735 3.5958080175872396 3.4082688228272318 1.2402561359195095 -7.686454303662928 -1.0559641151745103 -0.4588703625250111 -3.574123081085647 0.0 0.0 0.0
399.73081784245016 219.44579346338853 735.9231376109138 0.4521616530302705 2.607667007985039 -3.6194320933847273 0.6298584869579954 -2.228266313034914 -0.19172938029459002 1.1205494334057085 -1.6307686545913167 -0.5551600627222323 0.0 0.0 0.0 -0.20419108700571223 0.055439190719699084 -0.7984993177602454 -0.6827416522191811 3.6092335104714053 10.109205224962267 0.5683876458014112 -0.1264951405346791 0.6871943852895269 0.0 0.0 0.0 -0.11849032399429697 0.08645509457762018 3.5946347968832617 3.366036601321756 1.2601742463584493 -7.690949186056024 -0.983011839951853 -0.43651582674028927 -3.5107166184990977 0.0 0.0 0.0
399.6561819345988 219.34566888796033 735.7823325304396 0.46101472379151365 2.5933447847267255 -3.6364299830825173 0.6307294074366523 -2.224566556763733 -0.19180817015240165 1.1281397385233267 -1.6523852945380801 -0.5580952489380111 0.0 0.0 0.0 -0.19920519028815256 0.055651241945724086 -0.7915362379231982 -0.6681080912371681 3.6449382535189465 10.192481049930306 0.43444229949804014 -0.09601552949201322 0.5246635921514251 0.0 0.0 0.0 -0.12098894440557471 0.086853944388953 3.5901291930156214 3.3100320882315777 1.2898638692320212 -7.705619770821989 -0.8817009026438678 -0.40596362854488416 -3.428153857539114 0.0 0.0 0.0
399.560738134174 219.23092038084678 735.6250306479004 0.4707559677962148 2.576727851417417 -3.649000454433176 0.6316829644054095 -2.220767353515275 -0.19190187991046131 1.1370144909150939 -1.6758355875577886 -0.5616844362784792 0.0 0.0 0.0 -0.19389289277885852 0.0562584245318986 -0.7872378004904287 -0.6449524917465893 3.689682236596121 10.29294962718172 0.2688807475430905 -0.05885912861195085 0.32306732442153935 0.0 0.0 0.0 -0.1246155754859485 0.08739984265687206 3.581861568205123 3.2388162138226075 1.330700762765726 -7.732565647202674 -0.7489554610042769 -0.3664169543458043 -3.323914635609736 0.0 0.0 0.0
399.4407007410512 219.0997643530133 735.4508276352476 0.481470367975609 2.5574332433270976 -3.6560325732261876 0.6327300521570187 -2.216866089684659 -0.19201278626170307 1.1472803984448745 -1.7009337445150876 -0.5660112642324783 0.0 0.0 0.0 -0.18827543997509485 0.05730531262347659 -0.7860022680997839 -0.6120404509648785 3.7441859616175712 10.411656047658466 0.06877812209760166 -0.014702641156050569 0.07802300690213756 0.0 0.0 0.0 -0.1295168262896844 0.08811293605408416 3.5694310206196147 3.1510476610655513 1.3840186869274476 -7.773954446684504 -0.5819981247741218 -0.3172124937000348 -3.195452057699145 0.0 0.0 0.0
399.29241783319463 218.95039509599036 735.2595648583383 0.4932532727058607 2.5350655477646793 -3.6564086954475066 0.6338799008346396 -2.212866002123961 -0.19214297739946037 1.1590228848995803 -1.7274401944253346 -0.5711506107684836 0.0 0.0 0.0 -0.182381673246772 0.05883182089596482 -0.7882019073758558 -0.5681652127371463 3.8090697748489837 10.549460085330445 -0.16850928578990262 0.036592567616897546 -0.21473407479285983 0.0 0.0 0.0 -0.13583453395185088 0.08901283809426858 3.5524782562035746 3.045509847782866 1.4510765787189126 -7.831984996599505 -0.3784420399906032 -0.25785666503064353 -3.0402130981600033 0.0 0.0 0.0
